<svg xmlns="http://www.w3.org/2000/svg" xmlns:xlink="http://www.w3.org/1999/xlink" viewBox="0 0 825 825"><defs><linearGradient id="a" x1="0.5" y1="412.5" x2="824.5" y2="412.5" gradientUnits="userSpaceOnUse"><stop offset="0.08" stop-color="#563acc"/><stop offset="0.52" stop-color="#6364ff"/></linearGradient></defs><rect x="0.5" y="0.5" width="824" height="824" rx="200" transform="translate(0 825) rotate(-90)" style="fill:url(#a)"/><path d="M688.62,248.65c-8.58-63.19-64.13-113-130-122.63-11.11-1.63-53.2-7.57-150.72-7.57h-.73c-97.54,0-118.47,5.94-129.58,7.57-64,9.38-122.48,54.12-136.67,118.06-6.82,31.49-7.55,66.4-6.28,98.42,1.8,45.92,2.16,91.76,6.36,137.49a640.61,640.61,0,0,0,15.19,90.19c13.48,54.79,68.06,100.39,121.54,119a328.7,328.7,0,0,0,177.82,9.3q9.74-2.25,19.26-5.22c14.32-4.51,31.12-9.56,43.47-18.44a1.33,1.33,0,0,0,.41-.47,1.53,1.53,0,0,0,.16-.6V629.44a1.41,1.41,0,0,0-.14-.57,1.3,1.3,0,0,0-.37-.44,1.24,1.24,0,0,0-.53-.25,1.42,1.42,0,0,0-.58,0,497,497,0,0,1-115.4,13.37c-66.88,0-84.86-31.47-90-44.56A137.06,137.06,0,0,1,304,561.86a1.15,1.15,0,0,1,.1-.58,1.35,1.35,0,0,1,.37-.48,1.5,1.5,0,0,1,.54-.26,1.22,1.22,0,0,1,.6,0,488,488,0,0,0,113.51,13.36c9.2,0,18.36,0,27.56-.24,38.46-1.07,79-3,116.83-10.35.94-.18,1.88-.34,2.69-.58,59.68-11.36,116.48-47,122.25-137.31.21-3.56.75-37.24.75-40.92C689.24,372,693.28,295.59,688.62,248.65Zm-235,178.58a14.86,14.86,0,0,1-12.5,7.74H359.56v38.1a19.06,19.06,0,1,1-38.1,0V435H239.9a14.88,14.88,0,0,1-12.5-7.74A13.51,13.51,0,0,1,229.78,413l47.63-54.18H259a14.87,14.87,0,0,1-12.5-7.73,14.22,14.22,0,0,1,1.79-14.29l47-54.17H278q-8.92-.6-12.5-8.34A13.49,13.49,0,0,1,267.88,260l65.48-69.65q7.14-6,14.29,0L413.13,260a13.49,13.49,0,0,1,2.38,14.28q-3.57,7.74-12.5,8.34H385.75l47,54.17A14.22,14.22,0,0,1,434.56,351q-4.17,7.74-12.5,7.73H403.61L451.23,413A13.49,13.49,0,0,1,453.61,427.23Zm152.4,0a14.88,14.88,0,0,1-12.5,7.74H512v38.1a19.05,19.05,0,1,1-38.1,0V415.92a17,17,0,0,0-7.14-14.28,7.17,7.17,0,0,0-1.19-1.79l-24.41-28a36.57,36.57,0,0,0,10.72-12.5q7.73-19-4.77-35.12l-25-28.58A38.14,38.14,0,0,0,433.37,282q6-16.67-4.17-31.55l56.56-60.12q7.14-6,14.28,0L565.53,260a13.51,13.51,0,0,1,2.38,14.28q-3.57,7.74-12.5,8.34H538.14l47,54.17A14.22,14.22,0,0,1,587,351q-4.17,7.74-12.5,7.73H556L603.62,413A13.5,13.5,0,0,1,606,427.23Z" style="fill:#fbfbfb;fill-opacity:0.97000002861023"/></svg>